<?xml version="1.0" encoding="UTF-8" standalone="no"?>
<!DOCTYPE svg PUBLIC "-//W3C//DTD SVG 1.1//EN" "http://www.w3.org/Graphics/SVG/1.1/DTD/svg11.dtd">
<svg width="100%" height="100%" viewBox="0 0 512 512" version="1.1" xmlns="http://www.w3.org/2000/svg" xmlns:xlink="http://www.w3.org/1999/xlink" xml:space="preserve" xmlns:serif="http://www.serif.com/" style="fill-rule:evenodd;clip-rule:evenodd;stroke-linejoin:round;stroke-miterlimit:2;">
    <g transform="matrix(1,0,0,1,0,-884)">
        <g id="Artboard2" transform="matrix(0.818475,0,0,0.94481,0,48.17)">
            <rect x="0" y="884.655" width="625.553" height="541.908" style="fill:none;"/>
            <g transform="matrix(3.11542,0,0,2.34035,-238.801,455.534)">
                <g id="path88" transform="matrix(0.398681,0,0,0.459752,40.6183,158.606)">
                    <path d="M357.493,531.634C357.067,455.57 357.486,420.009 357.486,420.009L323.535,420.009L318.782,452.242C318.144,456.58 314.266,459.699 309.897,459.379L227.014,453.465C222.852,453.166 219.542,449.854 219.251,445.692L216.842,411.16L146.874,404.415C146.906,411.934 147.003,420.172 147.003,421.812C147.003,495.707 240.742,531.225 357.207,531.634L357.493,531.634ZM357.496,363.484L356.226,363.484C352.548,363.484 349.021,362.023 346.42,359.422C343.819,356.821 342.358,353.294 342.358,349.616L342.358,306.628C342.358,302.951 343.819,299.423 346.42,296.823C349.021,294.222 352.548,292.761 356.226,292.761L357.501,292.761C357.506,224.398 357.512,145.649 357.512,123.868L357.512,123.855C357.453,123.855 357.4,123.868 357.35,123.868C357.299,123.868 357.245,123.855 357.193,123.855L357.193,123.868C348.87,123.967 340.578,124.478 332.317,125.858C325.356,110.299 317.363,94.382 308.605,79.684C286.712,84.551 265.056,91.327 244.751,101.547C245.216,119.476 246.374,136.654 248.724,154.104C240.839,159.156 232.551,163.492 225.186,169.406C217.703,175.163 210.061,180.67 203.285,187.403C189.748,178.45 175.42,170.036 160.66,162.608C144.75,179.731 129.873,198.212 117.721,218.893C126.864,233.683 136.409,247.547 146.715,260.703L147.003,260.703L147.003,387.626C147.235,387.628 147.467,387.636 147.697,387.658L225.509,395.161C229.585,395.554 232.779,398.834 233.063,402.919L235.462,437.267L303.338,442.111L308.014,410.409C308.62,406.298 312.146,403.252 316.303,403.252L357.493,403.252L357.496,363.484ZM293.938,312.225C293.938,338.134 272.946,359.122 247.046,359.122C221.159,359.122 200.16,338.134 200.16,312.225C200.16,286.334 221.159,265.356 247.046,265.356C272.946,265.356 293.938,286.334 293.938,312.225ZM282.655,315.006C282.655,332.191 268.727,346.12 251.529,346.12C234.339,346.12 220.403,332.191 220.403,315.006C220.403,297.821 234.339,283.88 251.529,283.88C268.727,283.88 282.655,297.821 282.655,315.006Z" style="fill:white;fill-rule:nonzero;"/>
                </g>
                <g transform="matrix(0.398681,0,0,0.459752,73.8088,181.437)">
                    <path d="M299.219,74.213L299.219,130.711L299.283,130.675C299.283,130.675 428.481,204.046 428.481,204.046C428.481,204.046 428.481,349.54 428.481,349.54C428.481,349.54 299.283,425.274 299.283,425.274L299.219,425.237L299.219,481.938L299.283,481.975L477.53,377.341L477.53,175.398L299.283,74.177L299.219,74.213ZM299.219,171.633L299.283,171.597L395.061,223.52L396.379,330.269L299.283,387.441L299.219,387.405L299.219,330.743L299.283,330.779L346.981,302.294L346.374,253.13C346.374,253.13 299.283,227.666 299.283,227.666L299.219,227.702L299.219,171.633Z" style="fill:white;"/>
                </g>
            </g>
        </g>
    </g>
</svg>
